<?xml version="1.0" encoding="UTF-8"?>
<!-- Created with Inkscape (http://www.inkscape.org/) -->
<svg width="13.447mm" height="12.839mm" version="1.1" viewBox="0 0 13.447 12.839" xml:space="preserve" xmlns="http://www.w3.org/2000/svg"><g transform="translate(-69.482 -106.28)"><g transform="matrix(1.0001 0 0 .99988 2.0989e-6 -.40281)" fill="#1f1e2b" stroke-width=".27573" aria-label="لندینو"><path d="m61.581 113.76h0.39852c0.36621 0 0.59598-0.0808 0.68933-0.24235 0.09335-0.16156 0.14002-0.42185 0.14002-0.78088v-4.8846h1.5564v5.0407c0 0.83653-0.18669 1.4684-0.56008 1.8957-0.37339 0.42724-0.98373 0.64086-1.831 0.64086h-0.39313z" display="none"/><path d="m59.319 111.63 1.4325-0.17234 0.11309 1.5941c0.01795 0.25491 0.08796 0.43802 0.21003 0.54931 0.12566 0.10771 0.32851 0.16157 0.60855 0.16157h0.11309v1.6695h-0.12386c-0.35185 0-0.65881-0.0628-0.9209-0.18849-0.2585-0.12925-0.47212-0.29081-0.64086-0.48468-0.21901 0.20464-0.4775 0.368-0.7755 0.49007-0.29799 0.12207-0.61573 0.1831-0.95322 0.1831h-0.517v-1.6695h0.517c0.38416 0 0.64625-0.0592 0.78627-0.17772 0.14002-0.12207 0.21003-0.35724 0.21003-0.70549 0-0.21541-0.0054-0.42724-0.01616-0.63548-0.01077-0.21183-0.02513-0.41647-0.04308-0.61393zm-0.25311-2.4396c0.16156-0.15438 0.35723-0.23157 0.58701-0.23157s0.42365 0.0772 0.58162 0.23157c0.15797 0.15079 0.23696 0.33749 0.23696 0.56008 0 0.2226-0.07899 0.41109-0.23696 0.56547-0.88406 0.63925-1.744-0.31482-1.1686-1.1256z" display="none"/><path d="m55.431 113.04c0-0.0898-0.02154-0.20644-0.06462-0.35005-0.03949-0.14721-0.07899-0.26569-0.11848-0.35544l-1.0825-2.3911 1.3625-0.66779 1.3625 3.1343c0.09694 0.219 0.1831 0.43262 0.2585 0.64086 0.07899 0.20823 0.17233 0.38057 0.28004 0.517 0.10771 0.13284 0.24952 0.19926 0.42545 0.19926h0.22619v1.6695h-0.22619c-0.40211 0-0.73062-0.0754-0.98553-0.22619-0.25132-0.15438-0.46853-0.34466-0.65163-0.57085-0.27645 0.25132-0.60137 0.44699-0.97476 0.58701-0.37339 0.13643-0.82397 0.20464-1.3517 0.20464-0.32671 0-0.60316-0.0108-0.82935-0.0323-0.2226-0.0215-0.45417-0.061-0.69472-0.11848v-1.6695c0.2226 0.0539 0.46314 0.0969 0.72164 0.12925 0.26209 0.0287 0.50264 0.0431 0.72164 0.0431 0.23337 0 0.47392-0.0197 0.72164-0.0592 0.25132-0.0395 0.46314-0.11307 0.63548-0.2208 0.17592-0.10771 0.26388-0.26209 0.26388-0.46314z" display="none"/><path d="m49.377 115.43h-1.1525v-1.6695h1.1632c0.25491 0 0.43083-0.0808 0.52777-0.24235 0.09694-0.16156 0.14541-0.368 0.14541-0.61932 0-0.24414-0.03052-0.51341-0.09155-0.80781s-0.12386-0.58162-0.18849-0.86166l1.5025-0.38775c0.0718 0.34825 0.12746 0.69292 0.16695 1.034 0.04308 0.34107 0.06462 0.66779 0.06462 0.98014 0 0.48827-0.06462 0.92629-0.19388 1.314-0.12925 0.38775-0.35005 0.69471-0.6624 0.9209-0.30876 0.22619-0.736 0.33928-1.2817 0.33928zm0.04308 1.6048c0-0.21183 0.0754-0.39134 0.22619-0.53854 0.15438-0.14361 0.33928-0.21542 0.5547-0.21542 0.21901 0 0.4039 0.0718 0.5547 0.21542 0.15079 0.1472 0.22619 0.32671 0.22619 0.53854 0 0.20823-0.0754 0.38595-0.22619 0.53315-0.15079 0.14721-0.33569 0.22081-0.5547 0.22081-0.21542 0-0.40032-0.0736-0.5547-0.22081-0.15079-0.1472-0.22619-0.32492-0.22619-0.53315zm-1.8472 0c0-0.21183 0.07719-0.39134 0.23157-0.53854 0.15079-0.14361 0.3339-0.21542 0.54931-0.21542 0.21901 0 0.4039 0.0718 0.5547 0.21542 0.15079 0.1472 0.22619 0.32671 0.22619 0.53854 0 0.20823-0.0754 0.38595-0.22619 0.53315-0.15079 0.14721-0.33569 0.22081-0.5547 0.22081-0.21542 0-0.39852-0.0736-0.54931-0.22081-0.15438-0.1472-0.23157-0.32492-0.23157-0.53315z" display="none"/><path d="m45.974 111.63 1.4325-0.17234 0.11309 1.5941c0.01795 0.25491 0.08796 0.43802 0.21003 0.54931 0.12566 0.10771 0.32851 0.16157 0.60855 0.16157h0.11309v1.6695h-0.12386c-0.35185 0-0.65881-0.0628-0.9209-0.18849-0.2585-0.12925-0.47212-0.29081-0.64086-0.48468-0.21901 0.20464-0.47751 0.368-0.7755 0.49007s-0.61573 0.1831-0.95322 0.1831h-0.517v-1.6695h0.517c0.38416 0 0.64625-0.0592 0.78627-0.17772 0.14002-0.12207 0.21003-0.35724 0.21003-0.70549 0-0.21541-0.0054-0.42724-0.01616-0.63548-0.01077-0.21183-0.02513-0.41647-0.04308-0.61393zm-0.49007-1.8795c0-0.22259 0.07899-0.40929 0.23696-0.56008 0.16156-0.15438 0.35723-0.23157 0.58701-0.23157s0.42365 0.0772 0.58162 0.23157c0.15797 0.15079 0.23696 0.33749 0.23696 0.56008 0 0.2226-0.07899 0.41109-0.23696 0.56547-0.15797 0.15079-0.35185 0.22619-0.58162 0.22619s-0.42545-0.0754-0.58701-0.22619c-0.15797-0.15438-0.23696-0.34287-0.23696-0.56547z" display="none"/><path d="m42.123 110.88c0.35185 0 0.66061 0.0808 0.92629 0.24234 0.26927 0.16157 0.49546 0.38057 0.67856 0.65702 0.18669 0.27286 0.3339 0.58162 0.4416 0.92629s0.17772 0.69831 0.21003 1.0609h0.35544v1.6695h-0.46314c-0.2226 0.85449-0.64445 1.5079-1.2656 1.9603-0.62112 0.45596-1.4397 0.78447-2.4557 0.98552l-0.57624-1.551c0.43442-0.0862 0.84371-0.19747 1.2279-0.3339 0.38775-0.13284 0.71805-0.28902 0.99091-0.46853 0.27286-0.17951 0.45417-0.37698 0.54393-0.59239h-0.43622c-0.73241 0-1.2943-0.15438-1.6856-0.46314-0.38775-0.30877-0.58162-0.815-0.58162-1.5187 0-0.26568 0.04129-0.54752 0.12386-0.84551 0.08258-0.29799 0.20824-0.57803 0.37698-0.84012 0.17233-0.26209 0.38954-0.47571 0.65163-0.64086 0.26568-0.16515 0.57803-0.24773 0.93706-0.24773zm0.17772 2.8866h0.64086c-0.02154-0.15079-0.06103-0.32313-0.11848-0.517-0.05385-0.19747-0.13822-0.36801-0.25311-0.51162-0.1113-0.14361-0.26388-0.21541-0.45776-0.21541-0.15438 0-0.27824 0.0485-0.37159 0.1454-0.09335 0.0969-0.15977 0.21363-0.19926 0.35006-0.03949 0.13284-0.05924 0.2567-0.05924 0.37159 0 0.17951 0.07899 0.28722 0.23696 0.32312 0.15797 0.0359 0.35185 0.0539 0.58162 0.0539z" display="none"/></g><g transform="matrix(.001468 0 0 -.001468 68.147 120.18)"><g><path d="m1508 9117-598-352v-5371l612-361c1095-644 1213-712 1222-712 5 0 12-4 15-9 8-12 2678-1583 2702-1589 19-5 19 60 21 2678l3 2683 597 350c329 193 598 353 598 356 0 4-900 536-1169 692l-46 26-1200-706-3-1966c-1-1081-5-1966-8-1966s-400 232-882 516-959 564-1059 622l-183 107v3933l133 77c692 405 1067 629 1060 635-8 8-507 304-960 568-133 78-245 142-250 141-4 0-277-159-605-352z" fill="#0066ff"/><path d="m8265 9110-600-349-3-1963-2-1964-43-22c-23-11-242-138-487-280l-445-259-3-707-2-706 82 49c46 27 362 210 703 408 341 197 794 460 1007 584 275 159 388 229 388 242 0 9 5 17 10 17 7 0 10 658 10 1953l1 1952 594 345c327 189 595 347 595 350 0 5-1193 700-1201 700-2 0-274-158-604-350z" fill="#1f1e2b"/></g></g></g></svg>
