<?xml version="1.0" encoding="UTF-8"?>
<!-- Created with Inkscape (http://www.inkscape.org/) -->
<svg width="43.061mm" height="11.338mm" version="1.1" viewBox="0 0 43.061 11.338" xml:space="preserve" xmlns="http://www.w3.org/2000/svg"><g transform="translate(-87.548 -128.76)"><g transform="translate(1.1798 .39328)" fill="#1f1e2b" stroke-width=".26458" aria-label="آی لندینگ"><path d="m127.95 129.01q0.062 0.0258 0.10852 0.0258 0.12402 0 0.21703-0.0723 0.0982-0.0775 0.21187-0.18087l0.31005-0.29454 0.6356 0.58392-0.35139 0.33072q-0.25321 0.24287-0.47024 0.3824-0.21703 0.13952-0.46507 0.13952-0.2222 0-0.50125-0.12919l-0.6666-0.29971q-0.12919-0.062-0.23254-0.062-0.14469 0-0.27388 0.10851-0.12402 0.10852-0.30488 0.29455l-0.34622 0.34622-0.64077-0.57876 0.35656-0.36689q0.32038-0.33072 0.58392-0.51675 0.26871-0.18603 0.53226-0.18603 0.13952 0 0.29454 0.0465 0.15503 0.0413 0.33589 0.12402zm0.25838 1.5089v6.5782h-1.4934v-6.5782z"/><path d="m122 139.71q-1.111 0-1.8448-0.4289-0.72862-0.4289-1.0852-1.173-0.35656-0.73895-0.35656-1.6846 0-0.63043 0.13952-1.3022 0.13953-0.67694 0.40307-1.3487l1.3384 0.51158q-0.19636 0.55809-0.33071 1.0852-0.13436 0.52709-0.13436 0.97666 0 0.48574 0.17053 0.8888 0.17053 0.40824 0.57876 0.65111t1.1213 0.24287q0.79579 0 1.3022-0.18086 0.51159-0.1757 0.75446-0.40823 0.24287-0.23254 0.24287-0.39273 0-0.093-0.13436-0.093h-0.83713q-0.24287 0-0.53225-0.0413-0.28938-0.0465-0.55292-0.21186-0.26354-0.17053-0.43407-0.52709-0.16536-0.35655-0.16536-0.97665 0-0.54259 0.1757-1.049 0.18086-0.50641 0.51158-0.90948 0.33588-0.40823 0.80613-0.64593 0.47024-0.2377 1.049-0.2377 0.84747 0 1.5037 0.48057l-0.50641 1.4211q-0.28421-0.15503-0.53742-0.21704-0.25321-0.062-0.44957-0.062-0.53742 0-0.8423 0.34623-0.30488 0.34622-0.30488 0.86813 0 0.11369 0.0879 0.13952 0.0878 0.0207 0.19119 0.0207h0.73378q0.61493 0 0.96632 0.1912 0.35139 0.18603 0.49608 0.51675 0.14986 0.33072 0.14986 0.75445 0 0.76996-0.4289 1.4056t-1.2505 1.0128q-0.81646 0.37723-1.9946 0.37723z"/><path d="m112.35 135.5h0.38239q0.52709 0 0.66144-0.23254 0.13435-0.23253 0.13435-0.74928v-4.6869h1.4934v4.8368q0 1.204-0.53742 1.819t-1.757 0.61493h-0.37722z"/><path d="m110.18 133.46 1.3746-0.16536 0.10851 1.5296q0.0258 0.36689 0.20154 0.52708 0.18086 0.15503 0.58392 0.15503h0.10852v1.6019h-0.11885q-0.50642 0-0.88364-0.18086-0.37206-0.18603-0.61493-0.46508-0.31522 0.29455-0.74412 0.47024-0.4289 0.1757-0.91464 0.1757h-0.49608v-1.6019h0.49608q0.55292 0 0.75445-0.17053 0.20153-0.17569 0.20153-0.67694 0-0.31005-0.0155-0.60976-0.0155-0.30488-0.0413-0.58909zm-0.47024-1.8034q0-0.32039 0.22737-0.53742 0.23253-0.2222 0.56325-0.2222t0.55809 0.2222q0.22737 0.21703 0.22737 0.53742 0 0.32038-0.22737 0.54258-0.22737 0.21704-0.55809 0.21704t-0.56325-0.21704q-0.22737-0.2222-0.22737-0.54258z"/><path d="m106.45 134.8q0-0.12919-0.062-0.33589-0.0568-0.21186-0.11369-0.34105l-1.0387-2.2944 1.3074-0.64077 1.3074 3.0075q0.13952 0.31522 0.24804 0.61493 0.11369 0.29972 0.26871 0.49608 0.15503 0.1912 0.40823 0.1912h0.21704v1.6019h-0.21704q-0.57876 0-0.94565-0.21704-0.36172-0.2222-0.62526-0.54775-0.3979 0.36172-0.93532 0.56326-0.53741 0.19636-1.297 0.19636-0.47024 0-0.7958-0.031-0.32038-0.031-0.6666-0.11369v-1.6019q0.32038 0.0775 0.69244 0.12402 0.37723 0.0413 0.69244 0.0413 0.33589 0 0.69245-0.0568 0.36172-0.0568 0.60976-0.21187 0.25321-0.15502 0.25321-0.4444z"/><path d="m100.64 137.1h-1.1058v-1.6019h1.1162q0.36689 0 0.50642-0.23254 0.13952-0.23253 0.13952-0.59426 0-0.35139-0.0879-0.77512t-0.18086-0.8268l1.4417-0.37206q0.10335 0.50125 0.16019 0.99216 0.062 0.49091 0.062 0.94048 0 0.70278-0.18603 1.2609t-0.6356 0.88364q-0.44441 0.32555-1.2299 0.32555zm0.0413 1.5399q0-0.30488 0.21703-0.51675 0.2222-0.2067 0.53225-0.2067 0.31522 0 0.53225 0.2067 0.21704 0.21187 0.21704 0.51675 0 0.29971-0.21704 0.51158-0.21703 0.21186-0.53225 0.21186-0.31005 0-0.53225-0.21186-0.21703-0.21187-0.21703-0.51158zm-1.7724 0q0-0.30488 0.2222-0.51675 0.21703-0.2067 0.52708-0.2067 0.31522 0 0.53225 0.2067 0.21703 0.21187 0.21703 0.51675 0 0.29971-0.21703 0.51158-0.21704 0.21186-0.53225 0.21186-0.31005 0-0.52708-0.21186-0.2222-0.21187-0.2222-0.51158z"/><path d="m97.375 133.46 1.3746-0.16536 0.10852 1.5296q0.02584 0.36689 0.20153 0.52708 0.18086 0.15503 0.58392 0.15503h0.10852v1.6019h-0.11885q-0.50641 0-0.88364-0.18086-0.37206-0.18603-0.61493-0.46508-0.31522 0.29455-0.74412 0.47024-0.4289 0.1757-0.91464 0.1757h-0.49608v-1.6019h0.49608q0.55292 0 0.75445-0.17053 0.20153-0.17569 0.20153-0.67694 0-0.31005-0.0155-0.60976-0.0155-0.30488-0.04134-0.58909zm-0.47024-1.8034q0-0.32039 0.22737-0.53742 0.23254-0.2222 0.56326-0.2222t0.55809 0.2222q0.22737 0.21703 0.22737 0.53742 0 0.32038-0.22737 0.54258-0.22737 0.21704-0.55809 0.21704t-0.56326-0.21704q-0.22737-0.2222-0.22737-0.54258z"/><path d="m90.952 130.93v-0.8268l4.2528-1.7311v0.82679zm0.88881 6.1751h-1.3074q-0.8733 0-1.6329-0.10852-0.75445-0.10852-1.328-0.38756-0.56842-0.28421-0.88881-0.79579-0.31522-0.51158-0.31522-1.3229 0-0.49091 0.10852-0.95081 0.10852-0.46508 0.26871-0.85264l1.328 0.50125q-0.08785 0.24804-0.18603 0.58392-0.09818 0.33072-0.09818 0.6356 0 0.37206 0.22737 0.59426t0.61493 0.33072q0.38756 0.10335 0.87847 0.13952 0.49091 0.031 1.0232 0.031h1.3022q0.79062 0 1.1989-0.10335 0.4134-0.10335 0.4134-0.43407 0-0.13952-0.25837-0.34105-0.25321-0.2067-0.6356-0.44441-0.37723-0.2377-0.76995-0.47024-0.38756-0.23253-0.65627-0.42373-0.2222-0.16536-0.34105-0.43924-0.11885-0.27904-0.11885-0.57359 0-0.31521 0.13952-0.56325 0.13952-0.25321 0.4289-0.36689l4.041-1.6484v1.5864l-2.7026 1.0955q0.70794 0.40823 1.1317 0.72345 0.4289 0.31005 0.68211 0.6356 0.25321 0.32555 0.4444 0.79062 0.14986 0.36173 0.27904 0.57876 0.13435 0.21187 0.34622 0.30488 0.21187 0.093 0.58909 0.093h0.13952v1.6019h-0.13952q-0.63043 0-1.0593-0.1757-0.4289-0.17569-0.71828-0.59426-0.27904 0.29972-0.59943 0.47024-0.32038 0.16536-0.75962 0.23254-0.43407 0.0672-1.0697 0.0672z"/></g><text x="108.36388" y="135.65564" font-family="'Vazirmatn RD'" font-size="10.583px" stroke-width=".26458" style="line-height:1.25" xml:space="preserve"><tspan x="108.36388" y="135.65564" stroke-width=".26458"/></text></g></svg>
