<svg id="SvgjsSvg1001" width="288" height="288" xmlns="http://www.w3.org/2000/svg" version="1.1" xmlns:xlink="http://www.w3.org/1999/xlink" xmlns:svgjs="http://svgjs.com/svgjs"><defs id="SvgjsDefs1002"></defs><g id="SvgjsG1008"><svg xmlns="http://www.w3.org/2000/svg" xmlns:svgjs="http://svgjs.com/svgjs" xmlns:xlink="http://www.w3.org/1999/xlink" viewBox="0 0 288 288" width="288" height="288"><svg xmlns="http://www.w3.org/2000/svg" fill="none" viewBox="0 0 874 1046" width="288" height="288"><path stroke="#000" stroke-linecap="round" stroke-linejoin="round" stroke-miterlimit="10" stroke-width="3" d="M570.973 670.605C570.973 670.605 505.393 663.385 456.083 664.865L468.783 529.985L445.714 533.695L435.684 472.815L528.444 468.705C528.444 468.705 534.294 473.735 552.374 472.155C585.554 481.855 625.924 540.355 625.924 540.355L571.094 561.755L564.573 548.545L570.973 670.605Z" class="colorStroke000 svgStroke"></path><path fill="#1e293b" stroke="#000" stroke-linecap="round" stroke-linejoin="round" stroke-miterlimit="10" stroke-width="3" d="M591.823 728.245L405.483 840.235 470.793 938.875C470.793 938.875 770.363 807.815 739.603 728.245 708.843 648.675 216.803 636.395 190.623 735.605 177.923 783.745 390.633 849.095 390.633 849.095L591.823 728.245zM496.873 443.975C491.103 425.675 526.083 379.785 554.543 383.795 581.213 387.555 580.673 401.925 585.883 410.875 588.783 415.845 597.163 420.655 598.423 430.185 599.573 438.885 593.323 443.555 594.163 450.745 594.993 457.875 601.823 469.735 592.403 475.065 585.463 478.995 585.303 465.065 570.743 462.955 560.143 461.415 545.773 460.555 529.713 455.755 514.143 451.105 501.443 458.475 496.873 443.975z" class="color000 svgShape colorStroke000 svgStroke color1e293b"></path><path fill="#f3f4f6" stroke="#000" stroke-linecap="round" stroke-linejoin="round" stroke-miterlimit="10" stroke-width="3" d="M313.114 367.725C313.114 367.725 303.294 312.665 289.914 316.675C276.544 320.685 294.594 369.505 294.594 369.505C294.594 369.505 256.754 390.505 258.864 400.005C260.934 409.355 338.394 532.995 359.954 537.505C381.514 542.015 445.714 533.695 445.714 533.695L435.684 472.815C435.684 472.815 388.314 475.235 374.414 468.705C324.674 445.325 339.074 339.735 327.684 338.085C314.934 336.225 313.114 367.725 313.114 367.725Z" class="colorfff svgShape colorStroke000 svgStroke color4ade80"></path><path fill="#f3f4f6" stroke="#000" stroke-linecap="round" stroke-linejoin="round" stroke-miterlimit="10" stroke-width="3" d="M299.134 406.665L310.714 400.645C310.714 400.645 298.714 363.065 286.494 368.745C277.294 373.025 299.134 406.665 299.134 406.665Z" class="colorfff svgShape colorStroke000 svgStroke color4ade80"></path><path fill="#f3f4f6" stroke="#000" stroke-linecap="round" stroke-linejoin="round" stroke-miterlimit="10" stroke-width="3" d="M284.683 414.505L296.693 408.115C296.693 408.115 283.593 369.745 273.443 375.015C262.383 380.765 284.683 414.505 284.683 414.505Z" class="colorfff svgShape colorStroke000 svgStroke color4ade80"></path><path fill="#f3f4f6" stroke="#000" stroke-linecap="round" stroke-linejoin="round" stroke-miterlimit="10" stroke-width="3" d="M270.854 422.965L281.884 415.605C281.884 415.605 268.784 377.235 258.644 382.505C247.574 388.255 270.854 422.965 270.854 422.965Z" class="colorfff svgShape colorStroke000 svgStroke color4ade80"></path><path stroke="#000" stroke-linecap="round" stroke-linejoin="round" stroke-miterlimit="10" stroke-width="3" d="M304.883 404.025C304.883 404.025 312.323 416.315 321.343 417.985" class="colorStroke000 svgStroke"></path><path fill="#f3f4f6" stroke="#000" stroke-linecap="round" stroke-linejoin="round" stroke-miterlimit="10" stroke-width="3" d="M625.924 540.345C625.924 540.345 670.294 603.475 667.294 620.975 664.444 637.615 550.714 695.765 550.714 695.765L547.514 637.805 594.154 612.225 571.084 561.745 625.924 540.345zM528.444 468.695L536.344 448.985C536.344 448.985 520.144 437.195 528.444 420.145 536.234 415.135 542.504 420.395 544.264 422.405 546.024 424.415 551.534 433.685 556.304 433.685 561.064 433.685 575.614 432.935 575.364 439.205 575.114 445.475 570.854 447.225 566.334 444.725 561.574 448.985 555.804 451.995 552.294 449.995 551.544 456.765 552.374 472.145 552.374 472.145 552.374 472.145 534.794 473.975 528.444 468.695z" class="colorfff svgShape colorStroke000 svgStroke color4ade80"></path><path fill="#767fad" stroke="#000" stroke-linecap="round" stroke-linejoin="round" stroke-miterlimit="10" stroke-width="3" d="M699.484 278.725L722.054 268.695C722.054 268.695 715.534 295.275 725.564 302.795C734.954 309.835 762.425 300.035 771.205 310.815C778.735 320.065 773.715 362.975 773.715 362.975L757.665 371.505C757.665 371.505 762.915 336.155 753.655 328.375C741.115 317.845 720.574 330.595 712.034 324.865C699.484 316.465 699.484 278.725 699.484 278.725Z" class="colorA7A5A5 svgShape colorStroke000 svgStroke colorff8066"></path><path fill="#37f969" stroke="#000" stroke-linecap="round" stroke-linejoin="round" stroke-miterlimit="10" stroke-width="3" d="M540.824 715.915L314.674 732.145C308.094 732.615 302.314 727.615 301.844 721.035L292.224 586.905C291.754 580.325 296.754 574.545 303.334 574.075L529.484 557.845C536.064 557.375 541.844 562.375 542.314 568.955L551.934 703.085C552.404 709.665 547.404 715.445 540.824 715.915Z" class="colorDADADA svgShape colorStroke000 svgStroke color767fad"></path><path fill="#f3f4f6" stroke="#000" stroke-linecap="round" stroke-linejoin="round" stroke-miterlimit="10" stroke-width="3" d="M420.814 679.765C433.461 679.765 443.714 669.512 443.714 656.865C443.714 644.218 433.461 633.965 420.814 633.965C408.167 633.965 397.914 644.218 397.914 656.865C397.914 669.512 408.167 679.765 420.814 679.765Z" class="colorfff svgShape colorStroke000 svgStroke color4ade80"></path><path stroke="#000" stroke-linecap="round" stroke-linejoin="round" stroke-miterlimit="10" stroke-width="3" d="M79.623 914.135V178.725C79.623 107.675 137.753 49.5349 208.813 49.5349H742.883C813.933 49.5349 872.073 107.665 872.073 178.725V914.135" class="colorStroke000 svgStroke"></path><path fill="#f3f4f6" stroke="#000" stroke-linecap="round" stroke-linejoin="round" stroke-miterlimit="10" stroke-width="3" d="M139.554 28.7249C146.894 28.7249 152.844 22.7749 152.844 15.4351C152.844 8.09519 146.894 2.14502 139.554 2.14502C132.214 2.14502 126.264 8.09519 126.264 15.4351C126.264 22.7749 132.214 28.7249 139.554 28.7249Z" class="colorfff svgShape colorStroke000 svgStroke color4ade80"></path><path fill="#37f969" stroke="#000" stroke-linecap="round" stroke-linejoin="round" stroke-miterlimit="10" stroke-width="3" d="M198.653 28.7249C205.993 28.7249 211.943 22.7749 211.943 15.4351C211.943 8.09519 205.993 2.14502 198.653 2.14502C191.313 2.14502 185.363 8.09519 185.363 15.4351C185.363 22.7749 191.313 28.7249 198.653 28.7249Z" class="colorDADADA svgShape colorStroke000 svgStroke color767fad"></path><path fill="#767fad" stroke="#000" stroke-linecap="round" stroke-linejoin="round" stroke-miterlimit="10" stroke-width="3" d="M258.134 28.7249C265.474 28.7249 271.424 22.7749 271.424 15.4351C271.424 8.09519 265.474 2.14502 258.134 2.14502C250.794 2.14502 244.844 8.09519 244.844 15.4351C244.844 22.7749 250.794 28.7249 258.134 28.7249Z" class="colorA7A5A5 svgShape colorStroke000 svgStroke colorff8066"></path><path stroke="#fff" stroke-miterlimit="10" d="M391.033 726.665L459.423 762.345" class="colorStrokefff svgStroke"></path><path fill="#1e293b" stroke="#000" stroke-linecap="round" stroke-linejoin="round" stroke-miterlimit="10" stroke-width="3" d="M611.274 866.655L641.974 890.055L554.604 949.445L508.514 921.335C508.514 921.335 592.624 879.155 611.274 866.655Z" class="color000 svgShape colorStroke000 svgStroke color1e293b"></path><path stroke="#000" stroke-linecap="round" stroke-linejoin="round" stroke-miterlimit="10" stroke-width="3" d="M641.974 890.065L670.394 910.805L575.244 976.985L538.414 960.445L641.974 890.065Z" class="colorStroke000 svgStroke"></path><path fill="#f3f4f6" stroke="#000" stroke-linecap="round" stroke-linejoin="round" stroke-miterlimit="10" stroke-width="3" d="M662.004 916.645L688.115 938.875L588.484 1043.85L606.584 983.675L592.824 964.755L662.004 916.645Z" class="colorfff svgShape colorStroke000 svgStroke color4ade80"></path><path stroke="#000" stroke-linecap="round" stroke-linejoin="round" stroke-miterlimit="10" stroke-width="3" d="M405.483 840.235L354.793 870.425L422.073 961.275L477.963 949.505L405.483 840.235Z" class="colorStroke000 svgStroke"></path><path fill="#f3f4f6" stroke="#000" stroke-linecap="round" stroke-linejoin="round" stroke-miterlimit="10" stroke-width="3" d="M362.464 880.775L321.344 907.785L383.534 1030.48L390.554 955.625L407.734 941.905L362.464 880.775Z" class="colorfff svgShape colorStroke000 svgStroke color4ade80"></path><path stroke="#fff" stroke-miterlimit="10" d="M475.844 905.565C475.844 905.565 679.714 801.975 679.714 777.475" class="colorStrokefff svgStroke"></path><path fill="#f3f4f6" stroke="#000" stroke-linecap="round" stroke-linejoin="round" stroke-miterlimit="10" stroke-width="3" d="M55.7438 587.685C85.4677 587.685 109.564 563.589 109.564 533.865C109.564 504.141 85.4677 480.045 55.7438 480.045C26.0198 480.045 1.92383 504.141 1.92383 533.865C1.92383 563.589 26.0198 587.685 55.7438 587.685Z" class="colorfff svgShape colorStroke000 svgStroke color4ade80"></path></svg></svg></g></svg>