<svg id="SvgjsSvg1035" width="288" height="288" xmlns="http://www.w3.org/2000/svg" version="1.1" xmlns:xlink="http://www.w3.org/1999/xlink" xmlns:svgjs="http://svgjs.com/svgjs"><defs id="SvgjsDefs1036"></defs><g id="SvgjsG1037"><svg xmlns="http://www.w3.org/2000/svg" fill="none" viewBox="0 0 984 960" width="288" height="288"><path fill="#f3f4f6" stroke="#000000" stroke-miterlimit="10" stroke-width="3" d="M981.917 115.758L641.047 116.244L641.401 364.994L982.271 364.508L981.917 115.758Z" class="colorfff svgShape colorStroke000 svgStroke"></path><path fill="#0166fd" d="M72.5977 322.5C74.7177 278.75 124.987 167.25 242.217 207.25C405.257 262.88 222.747 702.27 420.217 726C613.717 749.25 638.467 577.5 655.337 501.38H696.377C697.337 578.25 663.957 798.75 421.717 778.5C161.407 756.74 351.028 306.88 225.598 255C175.208 234.16 124.988 269.33 119.578 324.24" class="colorDADADA svgShape"></path><path stroke="#000000" stroke-linecap="round" stroke-linejoin="round" stroke-miterlimit="10" stroke-width="3" d="M72.5977 322.5C74.7177 278.75 124.987 167.25 242.217 207.25C405.257 262.88 222.747 702.27 420.217 726C613.717 749.25 638.467 577.5 655.337 501.38H696.377C697.337 578.25 663.957 798.75 421.717 778.5C161.407 756.74 351.028 306.88 225.598 255C175.208 234.16 124.988 269.33 119.578 324.24" class="colorStroke000 svgStroke"></path><path fill="#1e293b" stroke="#000000" stroke-linecap="round" stroke-linejoin="round" stroke-miterlimit="10" stroke-width="3" d="M413.289 261.09C419.729 261 435.979 268.03 443.949 261.65C451.919 255.27 446.579 246.27 447.229 237.93C448.409 222.74 436.369 196.86 415.369 196.86C390.599 196.86 388.388 215.99 380.738 215.99C370.968 215.99 347.849 249.55 364.599 262.11C375.119 270 378.759 253.39 386.479 260.23C394.719 267.56 406.579 261.19 413.289 261.09Z" class="color000 svgShape colorStroke000 svgStroke"></path><path fill="#f3f4f6" stroke="#000000" stroke-linecap="round" stroke-linejoin="round" stroke-miterlimit="10" stroke-width="3" d="M832.848 297.01C856.563 297.01 875.788 277.785 875.788 254.07 875.788 230.355 856.563 211.13 832.848 211.13 809.133 211.13 789.908 230.355 789.908 254.07 789.908 277.785 809.133 297.01 832.848 297.01zM357.969 435.75L469.719 440.25 463.339 331.13 485.459 344.01 511.459 301.26C511.459 301.26 457.709 267.57 414.769 267.57 414.769 267.57 407.079 271.51 401.079 267.57 373.519 272.45 354.959 285.19 312.199 328.32 338.819 357.01 351.009 369.57 351.009 369.57L362.819 358.13 357.969 435.75z" class="colorfff svgShape colorStroke000 svgStroke"></path><path fill="#f3f4f6" stroke="#000000" stroke-linecap="round" stroke-linejoin="round" stroke-miterlimit="10" stroke-width="3" d="M312.217 328.31L290.467 352.12L183.587 282.75C183.587 282.75 173.837 264 168.587 264.94C163.337 265.88 168.587 282.38 168.587 282.38C168.587 282.38 129.967 265.69 126.967 273C124.367 279.34 153.587 286.5 153.587 286.5C153.587 286.5 117.397 274.78 115.547 283.36C113.817 291.4 152.457 297.75 152.457 297.75C152.457 297.75 110.528 290.09 109.428 298.41C108.208 307.6 145.707 304.5 145.707 304.5C145.707 304.5 117.117 311.16 118.047 318.84C118.787 324.92 146.077 316.12 159.207 323.62C172.337 331.12 293.827 423.37 293.827 423.37L351.017 369.56L312.217 328.31Z" class="colorfff svgShape colorStroke000 svgStroke"></path><path fill="#1e293b" stroke="#000000" stroke-linecap="round" stroke-linejoin="round" stroke-miterlimit="10" stroke-width="3" d="M357.968 435.75L236.849 594.75L124.988 679.21L196.068 762.21L315.218 677.25L371.218 598.75L373.718 644.25L315.528 813.55L426.668 826.88L495.218 656.25L469.718 440.25L357.968 435.75Z" class="color000 svgShape colorStroke000 svgStroke"></path><path stroke="#000000" stroke-linecap="round" stroke-linejoin="round" stroke-miterlimit="10" stroke-width="3" d="M415.719 541.75L371.219 598.75M121.538 675.18L87.4082 698.81 154.348 795.75 208.728 777 121.538 675.18z" class="colorStroke000 svgStroke"></path><path fill="#f3f4f6" stroke="#000000" stroke-linecap="round" stroke-linejoin="round" stroke-miterlimit="10" stroke-width="3" d="M91.7285 705.05L43.2285 742.25L119.729 863.25L139.729 800.25L152.168 792.59L91.7285 705.05Z" class="colorfff svgShape colorStroke000 svgStroke"></path><path stroke="#000000" stroke-linecap="round" stroke-linejoin="round" stroke-miterlimit="10" stroke-width="3" d="M308.789 812.74L435.968 828L415.718 880.5L300.979 840L308.789 812.74Z" class="colorStroke000 svgStroke"></path><path fill="#f3f4f6" stroke="#000000" stroke-linecap="round" stroke-linejoin="round" stroke-miterlimit="10" stroke-width="3" d="M305.929 841.75L406.409 877.21L396.218 905.75L444.718 958.25L282.229 905.25L305.929 841.75Z" class="colorfff svgShape colorStroke000 svgStroke"></path><path fill="#0166fd" d="M119.578 324.23C111.048 394.45 184.728 472.59 351.028 529.49C570.218 604.49 594.968 772.49 645.218 905.24C647.828 912.13 600.328 923.04 598.718 918.74C524.468 720.74 476.468 631.31 340.078 580.87C85.7682 486.82 65.968 364.99 72.588 322.49" class="colorDADADA svgShape"></path><path stroke="#000000" stroke-linecap="round" stroke-linejoin="round" stroke-miterlimit="10" stroke-width="3" d="M119.578 324.23C111.048 394.45 184.728 472.59 351.028 529.49C570.218 604.49 594.968 772.49 645.218 905.24C647.828 912.13 600.328 923.04 598.718 918.74C524.468 720.74 476.468 631.31 340.078 580.87C85.7682 486.82 65.968 364.99 72.588 322.49" class="colorStroke000 svgStroke"></path><path fill="#f3f4f6" stroke="#000000" stroke-linecap="round" stroke-linejoin="round" stroke-miterlimit="10" stroke-width="3" d="M655.348 501.37L676.998 436.66L696.388 501.37H655.348Z" class="colorfff svgShape colorStroke000 svgStroke"></path><path fill="#1e293b" stroke="#000000" stroke-linecap="round" stroke-linejoin="round" stroke-miterlimit="10" stroke-width="3" d="M669.338 459.18L673.218 461L676.968 457.5L679.468 461L683.688 458.99L676.998 436.66L669.338 459.18Z" class="color000 svgShape colorStroke000 svgStroke"></path><path stroke="#000000" stroke-linecap="round" stroke-linejoin="round" stroke-miterlimit="10" stroke-width="3" d="M743.219 616.25C743.219 616.25 759.719 700.78 834.219 655.01 908.719 609.25 937.219 668.6 937.219 668.6M726.758 570.25L771.218 368.75M846.219 361.5L897.219 570.25" class="colorStroke000 svgStroke"></path><path fill="#767fad" d="M829.048 269.82L930.238 196.05L982.088 236.17L982.269 364.51L641.398 364.99L641.229 245.6L727.378 179.11L876.708 312.35" class="colorA7A5A5 svgShape"></path><path stroke="#000000" stroke-linecap="round" stroke-linejoin="round" stroke-miterlimit="10" stroke-width="3" d="M829.048 269.82L930.238 196.05 982.088 236.17 982.269 364.51 641.398 364.99 641.229 245.6 727.378 179.11 876.708 312.35M785.949 204.39L774.729 189.82M814.938 192.75L810.309 174.95M844.908 193.08L850.138 175.45M873.209 205.01L885.759 191.56" class="colorStroke000 svgStroke"></path><path fill="#0166fd" stroke="#000000" stroke-linecap="round" stroke-linejoin="round" stroke-miterlimit="10" stroke-width="3" d="M21.9785 96.2501C33.1623 96.2501 42.2285 87.1839 42.2285 76.0001C42.2285 64.8164 33.1623 55.7501 21.9785 55.7501C10.7947 55.7501 1.72852 64.8164 1.72852 76.0001C1.72852 87.1839 10.7947 96.2501 21.9785 96.2501Z" class="colorDADADA svgShape colorStroke000 svgStroke"></path><path fill="#f3f4f6" stroke="#000000" stroke-linecap="round" stroke-linejoin="round" stroke-miterlimit="10" stroke-width="3" d="M94.4688 19.2501C99.3012 19.2501 103.219 15.3326 103.219 10.5001C103.219 5.66763 99.3012 1.75012 94.4688 1.75012C89.6363 1.75012 85.7188 5.66763 85.7188 10.5001C85.7188 15.3326 89.6363 19.2501 94.4688 19.2501Z" class="colorfff svgShape colorStroke000 svgStroke"></path><path fill="#767fad" stroke="#000000" stroke-linecap="round" stroke-linejoin="round" stroke-miterlimit="10" stroke-width="3" d="M179.229 147.75C210.709 147.75 236.229 122.23 236.229 90.7501C236.229 59.2699 210.709 33.7501 179.229 33.7501C147.748 33.7501 122.229 59.2699 122.229 90.7501C122.229 122.23 147.748 147.75 179.229 147.75Z" class="colorA7A5A5 svgShape colorStroke000 svgStroke"></path><path stroke="#000000" stroke-linecap="round" stroke-linejoin="round" stroke-miterlimit="10" stroke-width="3" d="M224.108 54.76C240.758 53.01 252.718 55.5601 255.878 62.8001 262.008 76.8501 232.658 103.21 190.318 121.68 147.978 140.15 108.689 143.74 102.559 129.7 99.0886 121.74 106.998 109.83 122.218 97.64M69.9795 492C69.9795 492 95.0995 544.12 187.77 576.06 165.77 591.56 155.979 598.5 155.979 598.5L129.979 595.5 123.979 617.62 22.3594 689.62M292.728 29.2501C292.728 29.2501 319.728 105.75 259.168 186 285.258 194.62 301.728 210.75 301.728 210.75M654.219 809.75C654.219 809.75 655.639 849.7 666.219 854.25 678.199 859.41 716.719 827.01 682.339 903.88 676.889 916.08 761.959 876.5 761.959 876.5" class="colorStroke000 svgStroke"></path><path fill="#f3f4f6" stroke="#000000" stroke-linecap="round" stroke-linejoin="round" stroke-miterlimit="10" stroke-width="3" d="M401.098 252.37C403.098 255.6 401.098 267.56 401.098 267.56 401.098 267.56 404.688 269.55 407.378 269.3 410.068 269.05 412.718 267.56 412.718 267.56V252C412.718 252 432.128 242.72 425.048 233.77 419.418 226.65 404.838 237.75 401.468 238.88 398.098 240.01 392.558 236.15 390.718 239.94 388.538 244.43 398.968 248.93 401.098 252.37zM637.219 713.01C653.235 713.01 666.219 700.026 666.219 684.01 666.219 667.994 653.235 655.01 637.219 655.01 621.202 655.01 608.219 667.994 608.219 684.01 608.219 700.026 621.202 713.01 637.219 713.01zM511.469 301.25L566.279 337.87C566.279 337.87 648.399 289.68 652.529 284.43 656.659 279.18 662.279 264.74 666.969 264.93 671.659 265.12 666.969 284.05 666.969 284.05 666.969 284.05 705.589 271.3 710.089 279.55 702.029 281.99 681.969 288.36 681.969 288.36 681.969 288.36 716.089 277.86 720.409 284.05 724.729 290.24 682.529 298.67 682.529 298.67 682.529 298.67 722.089 286.86 725.839 295.48 729.589 304.1 689.459 306.17 689.459 306.17 689.459 306.17 723.209 304.48 722.649 309.36 722.089 314.24 663.769 314.05 569.839 394.67 552.589 384.36 485.469 343.98 485.469 343.98L511.469 301.25z" class="colorfff svgShape colorStroke000 svgStroke"></path></svg></g></svg>