<svg id="SvgjsSvg1001" width="500" height="700" xmlns="http://www.w3.org/2000/svg" version="1.1" xmlns:xlink="http://www.w3.org/1999/xlink" xmlns:svgjs="http://svgjs.com/svgjs"><defs id="SvgjsDefs1002"></defs><g id="SvgjsG1008"><svg xmlns="http://www.w3.org/2000/svg" fill="none" viewBox="0 0 690 792" width="288" height="288"><path stroke="#000000" stroke-linecap="round" stroke-linejoin="round" stroke-miterlimit="10" stroke-width="3" d="M290.943 314.57C290.943 314.57 338.154 265.39 338.994 268.74C340.614 275.24 343.874 286.42 343.874 286.42L395.994 267.13C395.994 267.13 377.874 179.11 368.494 168.8" class="colorStroke000 svgStroke"></path><path fill="#f3f4f6" stroke="#000000" stroke-linecap="round" stroke-linejoin="round" stroke-miterlimit="10" stroke-width="3" d="M542.394 350.22C543.314 340.03 509.584 345.85 509.584 345.85C509.584 345.85 541.034 365.33 542.394 350.22Z" class="colorfff svgShape colorStroke000 svgStroke"></path><path fill="#f3f4f6" stroke="#000000" stroke-linecap="round" stroke-linejoin="round" stroke-miterlimit="10" stroke-width="3" d="M396.003 267.12L405.143 309.29C405.143 309.29 517.123 344.17 527.623 353.54C538.123 362.92 557.383 375.77 552.183 382.59C548.833 386.98 512.253 359.54 512.253 359.54C512.253 359.54 550.243 385.41 544.873 392.92C539.833 399.98 508.873 370.8 508.873 370.8C508.873 370.8 539.333 397.11 534.373 403.24C529.623 409.12 504.373 380.93 504.373 380.93C504.373 380.93 515.993 395.18 513.753 398.93C511.513 402.68 485.253 376.05 478.503 372.68C471.753 369.31 357.663 337.81 357.663 337.81L343.883 286.44L396.003 267.12Z" class="colorfff svgShape colorStroke000 svgStroke"></path><path stroke="#000000" stroke-linecap="round" stroke-linejoin="round" stroke-miterlimit="10" stroke-width="3" d="M332.254 240.29L338.994 268.74" class="colorStroke000 svgStroke"></path><path fill="#1e293b" stroke="#000000" stroke-linecap="round" stroke-linejoin="round" stroke-miterlimit="10" stroke-width="3" d="M321.003 455.24L340.483 586.37L240.883 656.56L169.863 601.53L225.363 555.36C225.363 555.36 164.713 442.82 167.713 381.82C222.683 422.68 321.003 455.24 321.003 455.24Z" class="color000 svgShape colorStroke000 svgStroke"></path><path stroke="#ffffff" stroke-miterlimit="10" d="M261.504 443.29L286.705 571.1L205.234 627.96" class="colorStrokefff svgStroke"></path><path stroke="#000000" stroke-linecap="round" stroke-linejoin="round" stroke-miterlimit="10" stroke-width="3" d="M164.324 597.29L257.264 669.29L210.794 690.79L122.754 636.29L164.324 597.29Z" class="colorStroke000 svgStroke"></path><path fill="#f3f4f6" stroke="#000000" stroke-linecap="round" stroke-linejoin="round" stroke-miterlimit="10" stroke-width="3" d="M129.964 640.75L94.6836 670.41L190.003 744.35L188.503 698.54L203.954 686.56L129.964 640.75Z" class="colorfff svgShape colorStroke000 svgStroke"></path><path fill="#1e293b" stroke="#000000" stroke-linecap="round" stroke-linejoin="round" stroke-miterlimit="10" stroke-width="3" d="M167.715 381.83C237.205 435.83 406.505 482.54 406.505 482.54L441.935 667.25L533.255 644.49L522.755 451.79C501.005 424.04 317.055 312.98 248.565 300.98L167.715 381.83Z" class="color000 svgShape colorStroke000 svgStroke"></path><path stroke="#000000" stroke-linecap="round" stroke-linejoin="round" stroke-miterlimit="10" stroke-width="3" d="M2.25391 730.04C2.25391 730.04 15.334 745.85 21.564 745.79C176.954 744.35 517.524 742.35 673.124 740.04C678.274 739.96 687.744 725.54 687.744 725.54" class="colorStroke000 svgStroke"></path><path stroke="#000000" stroke-linecap="round" stroke-linejoin="round" stroke-miterlimit="10" stroke-width="3" d="M207.504 789.83C220.063 789.83 230.244 779.649 230.244 767.09 230.244 754.531 220.063 744.35 207.504 744.35 194.945 744.35 184.764 754.531 184.764 767.09 184.764 779.649 194.945 789.83 207.504 789.83zM562.895 787.83C575.453 787.83 585.634 777.649 585.634 765.09 585.634 752.531 575.453 742.35 562.895 742.35 550.336 742.35 540.154 752.531 540.154 765.09 540.154 777.649 550.336 787.83 562.895 787.83zM431.754 669.79L548.254 640.75 545.754 683.29 440.754 700.29 431.754 669.79z" class="colorStroke000 svgStroke"></path><path fill="#f3f4f6" stroke="#000000" stroke-linecap="round" stroke-linejoin="round" stroke-miterlimit="10" stroke-width="3" d="M534.435 685.12V702.04L588.005 741.1 454.755 741.97 447.035 699.27 534.435 685.12zM386.904 157.04C395.967 157.04 403.314 148.56 403.314 138.1 403.314 127.64 395.967 119.16 386.904 119.16 377.841 119.16 370.494 127.64 370.494 138.1 370.494 148.56 377.841 157.04 386.904 157.04z" class="colorfff svgShape colorStroke000 svgStroke"></path><path stroke="#000000" stroke-linecap="round" stroke-linejoin="round" stroke-miterlimit="10" stroke-width="3" d="M233.924 233.05C233.924 233.05 308.964 187.04 384.004 194.92M241.814 240.93C241.814 240.93 302.414 193.71 385.504 204.79M270.504 279.04C270.504 279.04 308.964 282.79 333.504 276.54M261.504 288.04C261.504 288.04 300.444 292.48 328.254 284.54" class="colorStroke000 svgStroke"></path><path fill="#767fad" stroke="#000000" stroke-linecap="round" stroke-linejoin="round" stroke-miterlimit="10" stroke-width="3" d="M224.551 177.55L183.246 149.375L146.337 203.485L187.642 231.66L224.551 177.55Z" class="colorA7A5A5 svgShape colorStroke000 svgStroke"></path><path fill="#1e293b" stroke="#000000" stroke-linecap="round" stroke-linejoin="round" stroke-miterlimit="10" stroke-width="3" d="M240.344 188.314L224.549 177.54L187.64 231.649L203.435 242.424L240.344 188.314Z" class="color000 svgShape colorStroke000 svgStroke"></path><path fill="#f3f4f6" stroke="#000000" stroke-linecap="round" stroke-linejoin="round" stroke-miterlimit="10" stroke-width="3" d="M202.164 175.854L176.918 158.633L146.331 203.474L171.577 220.694L202.164 175.854Z" class="colorfff svgShape colorStroke000 svgStroke"></path><path fill="#1e293b" stroke="#000000" stroke-linecap="round" stroke-linejoin="round" stroke-miterlimit="10" stroke-width="3" d="M368.503 168.79C373.283 167.44 370.503 163.66 377.123 152.67C383.873 141.46 411.023 132.48 411.003 124.29C410.953 106.38 370.153 78.2901 329.753 103.29C324.003 106.85 306.484 105.94 304.784 113.63C302.064 125.91 312.074 121.56 315.284 130.22C320.124 143.28 334.123 149.53 341.753 153.03C350.553 157.08 353.113 173.13 368.503 168.79Z" class="color000 svgShape colorStroke000 svgStroke"></path><path stroke="#000000" stroke-linecap="round" stroke-linejoin="round" stroke-miterlimit="10" stroke-width="3" d="M195.374 61.79H128.254V116.16H195.374V61.79Z" class="colorStroke000 svgStroke"></path><path stroke="#000000" stroke-linecap="round" stroke-linejoin="round" stroke-miterlimit="10" stroke-width="3" d="M128.254 61.79L162.004 86.04L195.374 61.79H128.254Z" class="colorStroke000 svgStroke"></path><path fill="#767fad" stroke="#000000" stroke-linecap="round" stroke-linejoin="round" stroke-miterlimit="10" stroke-width="3" d="M79.5039 29.54H2.25391V96.29H79.5039V29.54Z" class="colorA7A5A5 svgShape colorStroke000 svgStroke"></path><path fill="#f3f4f6" stroke="#000000" stroke-linecap="round" stroke-linejoin="round" stroke-miterlimit="10" stroke-width="3" d="M40.874 41.92H2.25391V64.98H40.874V41.92Z" class="colorfff svgShape colorStroke000 svgStroke"></path><path stroke="#000000" stroke-linecap="round" stroke-linejoin="round" stroke-miterlimit="10" stroke-width="3" d="M3.125 76.42H28.125M3.125 84.29H16.7549" class="colorStroke000 svgStroke"></path><path fill="#1e293b" stroke="#000000" stroke-linecap="round" stroke-linejoin="round" stroke-miterlimit="10" stroke-width="3" d="M79.5039 29.54H57.2539V95.29H79.5039V29.54Z" class="color000 svgShape colorStroke000 svgStroke"></path><path fill="#767fad" stroke="#000000" stroke-linecap="round" stroke-linejoin="round" stroke-miterlimit="10" stroke-width="3" d="M618.696 241.479L538.945 189.357L493.908 258.267L573.659 310.389L618.696 241.479Z" class="colorA7A5A5 svgShape colorStroke000 svgStroke"></path><path fill="#f3f4f6" stroke="#000000" stroke-linecap="round" stroke-linejoin="round" stroke-miterlimit="10" stroke-width="3" d="M570.475 228.202L530.596 202.139L515.036 225.946L554.915 252.009L570.475 228.202Z" class="colorfff svgShape colorStroke000 svgStroke"></path><path stroke="#000000" stroke-linecap="round" stroke-linejoin="round" stroke-miterlimit="10" stroke-width="3" d="M507.354 237.55L534.063 255.01M502.043 245.68L517.013 255.47" class="colorStroke000 svgStroke"></path><path fill="#1e293b" stroke="#000000" stroke-linecap="round" stroke-linejoin="round" stroke-miterlimit="10" stroke-width="3" d="M595.963 226.315L550.926 295.225L573.896 310.237L618.933 241.327L595.963 226.315Z" class="color000 svgShape colorStroke000 svgStroke"></path><path fill="#37f969" stroke="#000000" stroke-linecap="round" stroke-linejoin="round" stroke-miterlimit="10" stroke-width="3" d="M275.192 274.295L149.215 148.318L30.1392 267.394L156.116 393.371L275.192 274.295Z" class="colorDADADA svgShape colorStroke000 svgStroke"></path><path fill="#37f969" stroke="#000000" stroke-linecap="round" stroke-linejoin="round" stroke-miterlimit="10" stroke-width="3" d="M275.194 274.293L236.799 235.897L117.723 354.973L156.119 393.368L275.194 274.293Z" class="color565656 svgShape colorStroke000 svgStroke"></path><path fill="#37f969" stroke="#000000" stroke-linecap="round" stroke-linejoin="round" stroke-miterlimit="10" stroke-width="3" d="M179.194 244.61L91.834 157.46L149.234 148.35L236.814 235.94L179.194 244.61Z" class="colorDADADA svgShape colorStroke000 svgStroke"></path><path stroke="#000000" stroke-linecap="round" stroke-linejoin="round" stroke-miterlimit="10" stroke-width="3" d="M91.5137 103.79C91.5137 103.79 112.504 117.66 117.374 126.29M171.005 131.18C171.005 131.18 167.555 143.6 166.885 148.35M260.625 58.04C260.625 58.04 228.245 87.43 222.375 98.54" class="colorStroke000 svgStroke"></path><path fill="#37f969" stroke="#000000" stroke-linecap="round" stroke-linejoin="round" stroke-miterlimit="10" stroke-width="3" d="M314.183 157.931L271.363 91.1761L216.131 126.604L258.95 193.36L314.183 157.931Z" class="colorDADADA svgShape colorStroke000 svgStroke"></path><path fill="#f3f4f6" stroke="#000000" stroke-linecap="round" stroke-linejoin="round" stroke-miterlimit="10" stroke-width="3" d="M296.239 151.657L270.842 112.063L249.538 125.728L274.935 165.322L296.239 151.657Z" class="colorfff svgShape colorStroke000 svgStroke"></path><path stroke="#000000" stroke-linecap="round" stroke-linejoin="round" stroke-miterlimit="10" stroke-width="3" d="M240.234 131.75L251.134 148.75M233.924 135.8L242.594 149.33M325.314 18.2901C325.314 18.2901 298.874 3.10005 288.934 13.0401 278.994 22.9801 320.524 43.88 312.184 52.23 303.844 60.57 268.824 35.1701 265.004 25.0401M319.505 2.17004L276.375 45.29M327.564 6.09998L280.314 53.3499" class="colorStroke000 svgStroke"></path><path stroke="#ffffff" stroke-miterlimit="10" d="M343.475 392.63L469.294 469.04L490.004 619.24" class="colorStrokefff svgStroke"></path></svg></g></svg>